<?xml version="1.0" encoding="UTF-8"?>
<svg id="Capa_1" data-name="Capa 1" xmlns="http://www.w3.org/2000/svg" version="1.1" viewBox="0 0 31.9 32">
  <defs>
    <style>
      .cls-1 {
        fill: #f58812;
      }

      .cls-1, .cls-2, .cls-3, .cls-4, .cls-5, .cls-6, .cls-7, .cls-8, .cls-9, .cls-10, .cls-11, .cls-12 {
        fill-rule: evenodd;
        stroke-width: 0px;
      }

      .cls-2 {
        fill: #f37e10;
      }

      .cls-3 {
        fill: #f3a900;
      }

      .cls-4 {
        fill: #f68c1f;
      }

      .cls-5 {
        fill: #f2740f;
      }

      .cls-6 {
        fill: #f79917;
      }

      .cls-7 {
        fill: #f68b12;
      }

      .cls-8 {
        fill: #f0670a;
      }

      .cls-9 {
        fill: #f4810f;
      }

      .cls-10 {
        fill: #f7971d;
      }

      .cls-11 {
        fill: #f9a51a;
      }

      .cls-12 {
        fill: #f58512;
      }
    </style>
  </defs>
  <g id="beaker">
    <path id="body" class="cls-3" d="M27.6,25.2l-6.4-19.2h-10.5l-6.4,19.2c-1,3.1,1.3,6.3,4.5,6.3h14.2c3.3,0,5.6-3.2,4.5-6.3Z"/>
    <polygon id="Triangle11" class="cls-2" points="15.9 24.1 22.8 12.8 20.2 8.9 15.9 24.1"/>
    <polygon id="Triangle10" class="cls-7" points="15.9 24.1 18.4 6 20.2 8.9 15.9 24.1"/>
    <polygon id="Triangle9" class="cls-11" points="20.2 8.9 18.4 6 21 6 20.2 8.9"/>
    <polygon id="Triangle8" class="cls-9" points="23.3 12.2 22.8 12.8 24.3 15.2 23.3 12.2"/>
    <polygon id="Triangle7" class="cls-4" points="18.4 6 15.9 6 10.7 6 6.5 18.4 18.4 6"/>
    <polygon id="Triangle6" class="cls-12" points="27.4 24.5 25.4 18.5 21.9 14.2 15.9 24.1 27.4 24.5"/>
    <polygon id="Triangle5" class="cls-8" points="24.3 15.2 22.8 12.8 21.9 14.2 25.4 18.5 24.3 15.2"/>
    <polygon id="Triangle4" class="cls-1" points="5.2 22.6 15.9 24.1 18.4 6 6.5 18.4 5.2 22.6"/>
    <path id="Triangle3" class="cls-5" d="M5.2,22.6l-.9,2.6c-.5,1.5-.2,3,.5,4.1l11.1-5.3-10.8-1.5Z"/>
    <path id="Triangle2" class="cls-10" d="M23.4,31.5c3.1-.2,5.2-3.3,4.2-6.3l-.2-.7-11.4-.4,7.4,7.4Z"/>
    <polygon id="Triangle1" class="cls-6" points="21.2 6 21 6 20.2 8.9 22.8 12.8 23.3 12.2 21.2 6"/>
  </g>
  <path id="nut2" class="cls-3" d="M18.1.5h-1.9l-1,1.7,1,1.7h1.9l1-1.7-1-1.7ZM17.7,3.1h-1.1l-.5-.9.5-.9h1.1l.5.9-.5.9Z"/>
  <path id="nut1" class="cls-3" d="M14.9,2.2h-1.9l-1,1.7,1,1.7h1.9l1-1.7-1-1.7ZM14.5,4.8h-1.1l-.5-.9.5-.9h1.1l.5.9-.5.9Z"/>
</svg>